HIERARCHY
ROOT Hips
{
 OFFSET 0.000000 0.000000 0.000000
 CHANNELS 6 Xposition Yposition Zposition Yrotation Xrotation Zrotation
 JOINT Chest
 {
  OFFSET 0.000000 9.303000 0.001900
  CHANNELS 3 Yrotation Xrotation Zrotation
  JOINT Chest2
  {
   OFFSET 0.000000 9.301100 -0.003900
   CHANNELS 3 Yrotation Xrotation Zrotation
   JOINT Chest3
   {
    OFFSET 0.000000 9.262800 0.000000
    CHANNELS 3 Yrotation Xrotation Zrotation
    JOINT Chest4
    {
     OFFSET 0.000000 9.253300 0.000000
     CHANNELS 3 Yrotation Xrotation Zrotation
     JOINT Neck
     {
      OFFSET 0.000000 14.010300 0.000000
      CHANNELS 3 Yrotation Xrotation Zrotation
      JOINT Head
      {
       OFFSET 0.000000 8.657600 -0.008300
       CHANNELS 3 Yrotation Xrotation Zrotation
       End Site
       {
        OFFSET 0.000000 16.540200 -0.004400
       }
      }
     }
     JOINT RightCollar
     {
      OFFSET -2.834100 9.267700 0.000000
      CHANNELS 3 Yrotation Xrotation Zrotation
      JOINT RightShoulder
      {
       OFFSET -13.135200 0.000000 0.000000
       CHANNELS 3 Yrotation Xrotation Zrotation
       JOINT RightElbow
       {
        OFFSET 0.000000 -28.893500 0.000000
        CHANNELS 3 Yrotation Xrotation Zrotation
        JOINT RightWrist
        {
         OFFSET 0.000000 -23.344000 0.000000
         CHANNELS 3 Yrotation Xrotation Zrotation
         End Site
         {
          OFFSET 0.000000 -17.223000 0.000000
         }
        }
       }
      }
     }
     JOINT LeftCollar
     {
      OFFSET 2.834100 9.267700 0.000000
      CHANNELS 3 Yrotation Xrotation Zrotation
      JOINT LeftShoulder
      {
       OFFSET 13.135200 0.000000 0.000000
       CHANNELS 3 Yrotation Xrotation Zrotation
       JOINT LeftElbow
       {
        OFFSET 0.000000 -28.893500 0.000000
        CHANNELS 3 Yrotation Xrotation Zrotation
        JOINT LeftWrist
        {
         OFFSET 0.000000 -23.344000 0.000000
         CHANNELS 3 Yrotation Xrotation Zrotation
         End Site
         {
          OFFSET 0.000000 -17.223000 0.000000
         }
        }
       }
      }
     }
    }
   }
  }
 }
 JOINT RightHip
 {
  OFFSET -7.547200 -0.009500 -0.001000
  CHANNELS 3 Yrotation Xrotation Zrotation
  JOINT RightKnee
  {
   OFFSET 0.000000 -39.762800 0.000900
   CHANNELS 3 Yrotation Xrotation Zrotation
   JOINT RightAnkle
   {
    OFFSET 0.000000 -38.588200 0.001600
    CHANNELS 3 Yrotation Xrotation Zrotation
    JOINT RightToe
    {
     OFFSET 0.000000 -4.693300 10.419700
     CHANNELS 3 Yrotation Xrotation Zrotation
     End Site
     {
      OFFSET 0.000000 -1.379900 5.669300
     }
    }
   }
  }
 }
 JOINT LeftHip
 {
  OFFSET 7.547200 -0.009500 -0.001000
  CHANNELS 3 Yrotation Xrotation Zrotation
  JOINT LeftKnee
  {
   OFFSET 0.000000 -39.762800 0.000900
   CHANNELS 3 Yrotation Xrotation Zrotation
   JOINT LeftAnkle
   {
    OFFSET 0.000000 -38.588200 0.001600
    CHANNELS 3 Yrotation Xrotation Zrotation
    JOINT LeftToe
    {
     OFFSET 0.000000 -4.693300 10.419700
     CHANNELS 3 Yrotation Xrotation Zrotation
     End Site
     {
      OFFSET 0.000000 -1.379900 5.669300
     }
    }
   }
  }
 }
}
MOTION
Frames: 9
Frame Time: 0.008333
0.000000 82.880600 0.000000 0.000000 -5.767877 0.000000 0.000000 11.653817 0.000000 0.000000 -5.885947 0.000000 0.000000 -0.000000 0.000000 0.000000 -0.000000 0.000000 0.000000 12.528835 0.000000 0.000000 0.711642 0.000000 0.000000 -0.000000 0.000000 0.000000 0.000000 -90.000000 0.000000 -2.309062 0.000000 0.000000 2.309062 0.000000 0.000000 -0.000000 0.000000 0.000000 -0.000000 90.000000 0.000000 -2.309062 0.000000 0.000000 2.309062 0.000000 0.000000 8.520406 0.000000 0.000000 1.905762 0.000000 -0.000000 -4.658285 0.000000 0.000000 -0.000000 0.000000 0.000000 8.520406 0.000000 0.000000 1.905762 0.000000 -0.000000 -4.658285 0.000000 0.000000 -0.000000 0.000000
-9.758586 45.850817 26.360872 163.514694 -14.651733 0.331867 3.262004 8.624175 0.157366 0.180947 0.473802 0.008462 0.311622 0.825258 0.018868 3.081705 8.023900 0.362577 -1.154488 21.584644 0.113325 -1.264778 -2.710180 0.388754 4.033842 1.248308 -3.148646 1.476654 -14.422352 -1.251195 -20.831568 -75.921369 27.468588 -11.882422 -9.839038 -26.834567 -11.484379 -0.838553 -4.562895 12.645947 -17.349616 10.648466 36.899599 -64.460050 -47.148306 10.279237 -10.152753 17.398831 -19.993897 -73.511814 15.336412 -69.351196 84.542619 -72.729931 -9.586490 -5.641179 -1.084671 0.024951 -0.199953 0.016673 5.818785 -73.150456 9.907122 76.853394 77.263177 74.628903 -11.410420 -4.787045 3.826906 0.049507 0.271243 0.019970
-9.760186 45.850237 26.363303 163.521259 -14.641026 0.331145 3.249428 8.616715 0.158287 0.185243 0.471664 0.005456 0.310802 0.826785 0.020052 3.081245 8.030580 0.365012 -1.160385 21.594578 0.116572 -1.259263 -2.727278 0.380035 4.033458 1.239122 -3.152686 1.475186 -14.418920 -1.248319 -20.827119 -75.923169 27.465860 -11.880227 -9.834440 -26.840418 -11.487488 -0.847877 -4.563961 12.652325 -17.349381 10.646967 36.896408 -64.459691 -47.148017 10.280745 -10.154186 17.400459 -20.012085 -73.521667 15.349200 -69.331746 84.542570 -72.712317 -9.601020 -5.640639 -1.070365 0.047749 -0.197640 0.007953 5.822971 -73.156470 9.890999 76.778487 77.250956 74.561446 -11.423910 -4.780092 3.818655 0.060587 0.277847 0.020932
-9.761269 45.849929 26.364815 163.523626 -14.638079 0.329735 3.239733 8.616371 0.161303 0.188782 0.473061 0.006473 0.312688 0.825312 0.017745 3.071915 8.043811 0.370219 -1.158374 21.587486 0.110968 -1.256964 -2.725400 0.375905 4.035915 1.226430 -3.160380 1.480095 -14.419128 -1.246952 -20.819099 -75.926298 27.460295 -11.880454 -9.833193 -26.845485 -11.482361 -0.867230 -4.568184 12.659206 -17.344620 10.645487 36.896746 -64.461637 -47.150162 10.284106 -10.154408 17.399056 -20.021619 -73.523215 15.356206 -69.317863 84.540057 -72.705317 -9.583280 -5.639602 -1.058273 0.046832 -0.195321 0.003675 5.820214 -73.159469 9.890229 76.753890 77.245570 74.538805 -11.433235 -4.774301 3.817282 0.061178 0.277621 0.021342
-9.762216 45.849785 26.365728 163.521445 -14.639727 0.329609 3.232735 8.620755 0.163198 0.188617 0.473446 0.007245 0.312563 0.826492 0.017765 3.074682 8.044796 0.368499 -1.160875 21.589818 0.111727 -1.249894 -2.726289 0.371114 4.036940 1.221481 -3.159072 1.483187 -14.417467 -1.248193 -20.819487 -75.924061 27.461186 -11.879481 -9.829107 -26.851546 -11.478038 -0.874298 -4.569956 12.660530 -17.339481 10.649554 36.896491 -64.468186 -47.148147 10.297041 -10.149099 17.386840 -20.018904 -73.520424 15.355576 -69.291054 84.539487 -72.679860 -9.586678 -5.640176 -1.053529 0.043340 -0.192413 0.003091 5.819736 -73.159579 9.891341 76.747208 77.242190 74.533697 -11.436900 -4.767230 3.815524 0.064555 0.273369 0.023446
-9.762533 45.849772 26.366287 163.522842 -14.644745 0.325494 3.222041 8.628886 0.166948 0.190676 0.472901 0.009370 0.303710 0.830576 0.018836 3.075413 8.048079 0.370574 -1.157226 21.586210 0.104544 -1.244712 -2.729154 0.367982 4.049242 1.212276 -3.167704 1.481863 -14.415519 -1.245219 -20.821699 -75.918048 27.468249 -11.876185 -9.820631 -26.877144 -11.465084 -0.888134 -4.577461 12.663643 -17.338711 10.655447 36.887497 -64.466986 -47.141583 10.300951 -10.151387 17.388496 -20.022375 -73.513646 15.358603 -69.275278 84.538911 -72.663197 -9.593522 -5.639959 -1.050174 0.032594 -0.191546 0.003054 5.801959 -73.158003 9.905800 76.749812 77.241552 74.538225 -11.433878 -4.760870 3.814637 0.067828 0.268542 0.024102
-9.762749 45.849574 26.367677 163.511433 -14.644202 0.322669 3.224404 8.630742 0.171758 0.179457 0.476908 0.010113 0.311575 0.827804 0.018462 3.073613 8.051169 0.370945 -1.151488 21.583839 0.102879 -1.241723 -2.726324 0.363510 4.061844 1.210084 -3.168098 1.475030 -14.416719 -1.244377 -20.810420 -75.914072 27.467623 -11.873579 -9.827444 -26.895914 -11.459503 -0.895603 -4.578473 12.671317 -17.335512 10.660438 36.890815 -64.465816 -47.146366 10.305876 -10.148047 17.385011 -20.027836 -73.511670 15.376698 -69.245072 84.539365 -72.632123 -9.595637 -5.639549 -1.048559 0.029129 -0.189461 0.002949 5.791388 -73.162025 9.926816 76.752033 77.243367 74.542751 -11.433403 -4.753686 3.811297 0.066288 0.262763 0.027153
-9.762832 45.849443 26.368992 163.503676 -14.643269 0.318429 3.228229 8.630399 0.177542 0.175364 0.476852 0.011023 0.315551 0.827752 0.017701 3.069397 8.053752 0.373574 -1.151617 21.582542 0.100691 -1.238280 -2.722859 0.360626 4.066613 1.213192 -3.164524 1.467330 -14.417938 -1.247300 -20.816002 -75.910624 27.483313 -11.867757 -9.836488 -26.908004 -11.459980 -0.898371 -4.582631 12.679008 -17.336113 10.659647 36.875627 -64.465826 -47.131685 10.308783 -10.152398 17.384662 -20.040216 -73.509885 15.395937 -69.243404 84.532405 -72.630273 -9.569179 -5.638317 -1.049545 0.034049 -0.188325 0.005341 5.777744 -73.164600 9.948611 76.751185 77.244211 74.542758 -11.436388 -4.752010 3.810277 0.067959 0.262360 0.027850
-9.764024 45.849421 26.369869 163.502864 -14.641607 0.319983 3.223244 8.629166 0.175620 0.175511 0.475966 0.013102 0.315302 0.828388 0.015763 3.055355 8.049108 0.377418 -1.141621 21.586541 0.095089 -1.237235 -2.716310 0.358598 4.069264 1.223932 -3.166674 1.474701 -14.418197 -1.245519 -20.824162 -75.909125 27.500224 -11.870982 -9.852069 -26.926288 -11.444736 -0.890293 -4.587472 12.677835 -17.340559 10.651053 36.860822 -64.467342 -47.110238 10.304552 -10.155366 17.388993 -20.041360 -73.512134 15.389395 -69.249957 84.536135 -72.635204 -9.532465 -5.641329 -1.052091 0.032428 -0.186372 0.005963 5.779761 -73.165489 9.944458 76.735305 77.249659 74.522994 -11.424867 -4.749073 3.813480 0.063500 0.261574 0.027283
